HIERARCHY
ROOT Hips
{
	OFFSET -0.001795 -0.223333 0.028219
	CHANNELS 6 Xposition Yposition Zposition Zrotation Yrotation Xrotation 
	JOINT LeftUpLeg
	{
		OFFSET 0.069520 -0.091406 -0.006815
		CHANNELS 3 Zrotation Yrotation Xrotation
		JOINT LeftLeg
		{
			OFFSET 0.034277 -0.375199 -0.004496
			CHANNELS 3 Zrotation Yrotation Xrotation
			JOINT LeftFoot
			{
				OFFSET -0.013596 -0.397961 -0.043693
				CHANNELS 3 Zrotation Yrotation Xrotation
				JOINT LeftToe
				{
					OFFSET 0.026358 -0.055791 0.119288
					CHANNELS 3 Zrotation Yrotation Xrotation
					End Site
					{
						OFFSET 0.000000 0.000000 0.000000
					}
				}
			}
		}
	}
	JOINT RightUpLeg
	{
		OFFSET -0.067670 -0.090522 -0.004320
		CHANNELS 3 Zrotation Yrotation Xrotation
		JOINT RightLeg
		{
			OFFSET -0.038290 -0.382569 -0.008850
			CHANNELS 3 Zrotation Yrotation Xrotation
			JOINT RightFoot
			{
				OFFSET 0.015774 -0.398415 -0.042312
				CHANNELS 3 Zrotation Yrotation Xrotation
				JOINT RightToe
				{
					OFFSET -0.025372 -0.048144 0.123348
					CHANNELS 3 Zrotation Yrotation Xrotation
					End Site
					{
						OFFSET 0.000000 0.000000 0.000000
					}
				}
			}
		}
	}
	JOINT Spine
	{
		OFFSET -0.002533 0.108963 -0.026696
		CHANNELS 3 Zrotation Yrotation Xrotation
		JOINT Spine1
		{
			OFFSET 0.005487 0.135180 0.001092
			CHANNELS 3 Zrotation Yrotation Xrotation
			JOINT Spine2
			{
				OFFSET 0.001457 0.052922 0.025425
				CHANNELS 3 Zrotation Yrotation Xrotation
				JOINT Neck
				{
					OFFSET -0.002778 0.213870 -0.042857
					CHANNELS 3 Zrotation Yrotation Xrotation
					JOINT Head
					{
						OFFSET 0.005152 0.064970 0.051349
						CHANNELS 3 Zrotation Yrotation Xrotation
						End Site
						{
							OFFSET 0.000000 0.000000 0.000000
						}
					}
				}
				JOINT LeftShoulder
				{
					OFFSET 0.078845 0.121749 -0.034090
					CHANNELS 3 Zrotation Yrotation Xrotation
					JOINT LeftArm
					{
						OFFSET 0.090977 0.030469 -0.008868
						CHANNELS 3 Zrotation Yrotation Xrotation
						JOINT LeftForeArm
						{
							OFFSET 0.259612 -0.012772 -0.027456
							CHANNELS 3 Zrotation Yrotation Xrotation
							JOINT LeftHand
							{
								OFFSET 0.249234 0.008986 -0.001171
								CHANNELS 3 Zrotation Yrotation Xrotation
								End Site
								{
									OFFSET 0.000000 0.000000 0.000000
								}
							}
						}
					}
				}
				JOINT RightShoulder
				{
					OFFSET -0.081759 0.118833 -0.038615
					CHANNELS 3 Zrotation Yrotation Xrotation
					JOINT RightArm
					{
						OFFSET -0.096012 0.032551 -0.009143
						CHANNELS 3 Zrotation Yrotation Xrotation
						JOINT RightForeArm
						{
							OFFSET -0.253742 -0.013329 -0.021401
							CHANNELS 3 Zrotation Yrotation Xrotation
							JOINT RightHand
							{
								OFFSET -0.255298 0.007772 -0.005559
								CHANNELS 3 Zrotation Yrotation Xrotation
								End Site
								{
									OFFSET 0.000000 0.000000 0.000000
								}
							}
						}
					}
				}
			}
		}
	}
}
MOTION
Frames: 7
Frame Time: 0.050000
0.015135 0.933484 0.609967 -3.586270 -9.571800 1.288499 0.355219 -0.089840 -0.973245 0.714951 -0.106377 0.486215 2.211079 4.899048 0.480857 0.000000 0.000000 0.000000 3.816190 0.394611 -4.177081 1.701489 -0.067665 2.605008 -3.192457 -8.851356 2.393223 0.000000 0.000000 0.000000 -3.794158 0.046071 5.715812 -1.407298 0.764245 3.897767 3.389427 -0.240298 5.789151 -1.830002 1.712643 -17.575416 0.000000 0.000000 0.000000 -26.088712 -10.115512 5.849606 -43.618695 -19.306351 0.838306 -20.163572 -73.583682 20.494929 0.000000 0.000000 0.000000 24.821391 17.835043 6.423665 45.846762 15.971599 2.040673 28.805837 75.374073 23.353179 0.000000 0.000000 0.000000 
0.015485 0.933640 0.609523 -3.486969 -9.378754 1.319577 0.285059 -0.064092 -0.686057 0.794502 -0.091355 -0.205052 1.783275 4.048280 0.720813 0.000000 0.000000 0.000000 3.713663 0.381622 -4.075627 1.624452 -0.064144 2.488321 -3.119801 -8.589735 2.158152 0.000000 0.000000 0.000000 -3.817309 0.047318 5.524090 -1.433351 0.771609 3.772785 3.209968 -0.330318 5.821755 -2.001387 1.816158 -17.555705 0.000000 0.000000 0.000000 -25.976469 -10.320410 5.963389 -43.696011 -19.411977 0.884423 -20.348284 -73.490918 20.599866 0.000000 0.000000 0.000000 24.619882 17.572666 6.270222 46.267262 15.482647 1.867059 27.977563 76.868332 23.325755 0.000000 0.000000 0.000000 
0.015968 0.933804 0.609165 -3.441426 -9.146385 1.305509 0.196758 -0.037586 -0.397138 0.831115 -0.064711 -1.010530 1.532299 3.675311 1.315125 0.000000 0.000000 0.000000 3.676205 0.374546 -4.009557 1.535936 -0.057303 2.444736 -3.198356 -8.775776 2.182582 0.000000 0.000000 0.000000 -3.881096 0.050342 5.347369 -1.403445 0.754789 3.857143 2.931558 -0.448940 5.595526 -2.087853 1.875425 -17.635270 0.000000 0.000000 0.000000 -25.834125 -10.255766 5.877561 -43.696202 -19.497274 0.946521 -21.628351 -72.934556 21.329980 0.000000 0.000000 0.000000 24.707265 17.077978 5.980002 46.475368 14.983573 1.702932 27.252859 77.836109 23.139337 0.000000 0.000000 0.000000 
0.016488 0.934022 0.608865 -3.371380 -8.840927 1.351263 0.018274 -0.009235 -0.094075 1.005327 -0.049636 -1.843644 1.187170 3.043301 1.625947 0.000000 0.000000 0.000000 3.564162 0.366438 -3.937088 1.523915 -0.061336 2.323148 -3.295871 -9.002002 2.201322 0.000000 0.000000 0.000000 -3.935254 0.053246 5.175211 -1.329076 0.706225 3.621779 2.682515 -0.559573 5.747834 -2.175497 1.931186 -17.468423 0.000000 0.000000 0.000000 -25.833350 -10.334924 5.904404 -43.403750 -19.580421 0.952033 -23.128655 -72.356917 22.205429 0.000000 0.000000 0.000000 24.945996 16.919224 5.925397 46.427582 14.282155 1.417772 25.534386 78.767942 22.161763 0.000000 0.000000 0.000000 
0.017042 0.934197 0.608585 -3.354073 -8.567225 1.349367 -0.166688 0.003529 0.035863 1.076436 -0.047202 -2.062127 1.100893 2.904667 1.752903 0.000000 0.000000 0.000000 3.480295 0.360325 -3.876225 1.512678 -0.060389 2.352792 -3.382964 -9.200679 2.209920 0.000000 0.000000 0.000000 -3.943511 0.052582 4.966744 -1.224575 0.650344 3.753871 2.585143 -0.521892 5.574755 -2.065039 1.882132 -17.260386 0.000000 0.000000 0.000000 -25.584236 -10.024979 5.608889 -43.507577 -19.494384 0.968056 -26.342369 -71.995753 24.428009 0.000000 0.000000 0.000000 25.031045 16.475880 5.721654 46.641101 13.748372 1.214663 23.704271 79.235302 20.883817 0.000000 0.000000 0.000000 
0.017572 0.934195 0.608307 -3.255380 -8.185291 1.257253 -0.447865 0.015784 0.150063 1.228285 -0.056235 -2.194194 0.981422 2.642437 1.681631 0.000000 0.000000 0.000000 3.403176 0.343737 -3.723208 1.371535 -0.047056 2.347225 -3.404860 -9.261434 2.246191 0.000000 0.000000 0.000000 -3.869253 0.045050 4.844777 -1.067739 0.565713 3.877729 2.322481 -0.550193 5.484610 -1.952689 1.832180 -17.004533 0.000000 0.000000 0.000000 -25.449669 -9.785400 5.361138 -43.461530 -19.232961 0.905194 -29.539300 -71.803501 26.688665 0.000000 0.000000 0.000000 25.232003 15.971563 5.491869 46.817008 13.174505 0.985881 24.738484 79.469518 21.918946 0.000000 0.000000 0.000000 
0.018102 0.934082 0.607930 -3.194487 -7.962292 1.250654 -0.635450 0.019227 0.175011 1.375013 -0.067733 -2.257818 0.958511 2.601853 1.692483 0.000000 0.000000 0.000000 3.271701 0.339959 -3.681884 1.243448 -0.033004 2.376857 -3.367780 -9.159523 2.200533 0.000000 0.000000 0.000000 -3.836276 0.042443 4.593398 -1.118580 0.590649 3.973271 2.380087 -0.548896 5.460086 -2.046922 1.894598 -16.836756 0.000000 0.000000 0.000000 -25.622950 -9.514396 5.165979 -43.269363 -19.033722 0.827251 -32.774193 -71.786362 29.112616 0.000000 0.000000 0.000000 25.312246 15.599429 5.296694 47.058407 12.713982 0.809712 25.129984 79.417533 22.256322 0.000000 0.000000 0.000000 
